<svg width="24" height="14" viewBox="0 0 24 14" fill="none" xmlns="http://www.w3.org/2000/svg">
<g id="Arrow">
<path id="rightArrow" d="M23.725 6.2579C23.7247 6.25758 23.7245 6.25722 23.7242 6.2569L18.8256 0.805287C18.4586 0.396888 17.865 0.398407 17.4997 0.808851C17.1344 1.21924 17.1359 1.88303 17.5028 2.29148L20.7918 5.95161H0.9375C0.419719 5.95161 0 6.42098 0 7C0 7.57902 0.419719 8.04839 0.9375 8.04839H20.7917L17.5029 11.7085C17.1359 12.117 17.1345 12.7808 17.4997 13.1911C17.865 13.6016 18.4587 13.6031 18.8256 13.1947L23.7242 7.7431C23.7245 7.74278 23.7247 7.74242 23.7251 7.7421C24.0922 7.33229 24.0911 6.66635 23.725 6.2579Z" fill="white"/>
</g>
</svg>
